HIERARCHY
ROOT Hips
{
	OFFSET -3.958830 18.904000 13.208200
	CHANNELS 6 Xposition Yposition Zposition Zrotation Yrotation Xrotation 
	JOINT LHipJoint
	{
		OFFSET 0.000000 0.000000 0.000000
		CHANNELS 3 Zrotation Yrotation Xrotation
		JOINT LeftUpLeg
		{
			OFFSET 1.800000 -1.400000 0.085000
			CHANNELS 3 Zrotation Yrotation Xrotation
			JOINT LeftLeg
			{
				OFFSET 2.215000 -6.000000 0.000000
				CHANNELS 3 Zrotation Yrotation Xrotation
				JOINT LeftFoot
				{
					OFFSET 2.500000 -6.900000 0.000000
					CHANNELS 3 Zrotation Yrotation Xrotation
					JOINT LeftToeBase
					{
						OFFSET 0.200000 -0.500000 1.950000
						CHANNELS 3 Zrotation Yrotation Xrotation
						End Site
						{
							OFFSET 0.000000 0.000000 0.000000
						}
					}
				}
			}
		}
	}
	JOINT RHipJoint
	{
		OFFSET 0.000000 0.000000 0.000000
		CHANNELS 3 Zrotation Yrotation Xrotation
		JOINT RightUpLeg
		{
			OFFSET -1.800000 -1.400000 0.085000
			CHANNELS 3 Zrotation Yrotation Xrotation
			JOINT RightLeg
			{
				OFFSET -2.215000 -6.000000 0.000000
				CHANNELS 3 Zrotation Yrotation Xrotation
				JOINT RightFoot
				{
					OFFSET -2.500000 -6.900000 0.000000
					CHANNELS 3 Zrotation Yrotation Xrotation
					JOINT RightToeBase
					{
						OFFSET -0.200000 -0.500000 1.950000
						CHANNELS 3 Zrotation Yrotation Xrotation
						End Site
						{
							OFFSET 0.000000 0.000000 0.000000
						}
					}
				}
			}
		}
	}
	JOINT LowerBack
	{
		OFFSET 0.000000 0.000000 0.000000
		CHANNELS 3 Zrotation Yrotation Xrotation
		JOINT Spine
		{
			OFFSET -0.087000 1.940000 -0.288900
			CHANNELS 3 Zrotation Yrotation Xrotation
			JOINT Spine1
			{
				OFFSET 0.000000 1.950000 0.060000
				CHANNELS 3 Zrotation Yrotation Xrotation
				JOINT Neck
				{
					OFFSET 0.000000 0.000000 0.000000
					CHANNELS 3 Zrotation Yrotation Xrotation
					JOINT Neck1
					{
						OFFSET 0.000000 1.600000 0.340000
						CHANNELS 3 Zrotation Yrotation Xrotation
						JOINT Head
						{
							OFFSET 0.000000 1.667000 -0.240000
							CHANNELS 3 Zrotation Yrotation Xrotation
							End Site
							{
								OFFSET 0.000000 0.000000 0.000000
							}
						}
					}
				}
				JOINT LeftShoulder
				{
					OFFSET 0.000000 0.000000 0.000000
					CHANNELS 3 Zrotation Yrotation Xrotation
					JOINT LeftArm
					{
						OFFSET 2.700000 1.550000 -0.730000
						CHANNELS 3 Zrotation Yrotation Xrotation
						JOINT LeftForeArm
						{
							OFFSET 5.450000 0.000000 0.000000
							CHANNELS 3 Zrotation Yrotation Xrotation
							JOINT LeftHand
							{
								OFFSET 3.450000 0.000000 0.000000
								CHANNELS 3 Zrotation Yrotation Xrotation
								JOINT LeftHandIndex1
								{
									OFFSET 0.750000 0.000000 0.000000
									CHANNELS 3 Zrotation Yrotation Xrotation
									End Site
									{
										OFFSET 0.000000 0.000000 0.000000
									}
								}
							}
						}
					}
				}
				JOINT RightShoulder
				{
					OFFSET 0.000000 0.000000 0.000000
					CHANNELS 3 Zrotation Yrotation Xrotation
					JOINT RightArm
					{
						OFFSET -2.700000 1.550000 -0.730000
						CHANNELS 3 Zrotation Yrotation Xrotation
						JOINT RightForeArm
						{
							OFFSET -5.450000 0.000000 0.000000
							CHANNELS 3 Zrotation Yrotation Xrotation
							JOINT RightHand
							{
								OFFSET -3.450000 0.000000 0.000000
								CHANNELS 3 Zrotation Yrotation Xrotation
								JOINT RightHandIndex1
								{
									OFFSET -0.750000 0.000000 0.000000
									CHANNELS 3 Zrotation Yrotation Xrotation
									End Site
									{
										OFFSET 0.000000 0.000000 0.000000
									}
								}
							}
						}
					}
				}
			}
		}
	}
}
MOTION
Frames: 13
Frame Time: 0.016667
0.119530 16.705820 -0.864650 -3.648200 -1.862421 -6.285300 -15.228094 13.816090 3.521673 9.510301 -2.358851 -12.244385 -16.284651 14.117217 32.067980 0.578133 8.128057 1.815562 -0.007060 -0.246120 -0.092360 17.960563 -10.563565 2.911835 -7.608428 2.942939 -9.096120 18.316300 -12.726195 30.930053 -0.742625 -6.486920 2.194683 -0.128830 0.321620 0.163270 -3.011690 -3.139257 -8.446380 8.340750 -0.822929 23.069581 -3.497848 2.655794 -6.220123 2.884683 -3.256602 -15.665203 -9.314256 2.973902 39.637396 1.636000 -1.112660 -0.752790 -9.299981 -13.719038 4.581741 24.200180 4.966897 0.096719 18.301821 -8.044164 -0.578118 -4.042580 2.721925 0.354440 0.141250 -0.107930 0.089660 4.603263 18.977880 12.158622 -20.566580 -8.114629 -0.948456 -11.657000 1.944340 0.107153 2.563678 -1.126463 -0.178420 0.147790 0.182340 -0.089940 
0.117940 16.658150 -0.887240 -3.575641 -1.742903 -7.784669 -15.250851 13.761588 3.546516 10.192113 -2.491491 -11.738563 -16.908638 14.989369 33.755547 0.687137 8.604169 1.669064 -0.002690 -0.227070 -0.107910 17.958704 -10.491943 2.883525 -8.136328 3.074036 -8.450826 18.930365 -13.500254 32.467644 -0.814462 -6.873727 2.061270 -0.105260 0.348060 0.171330 -2.985522 -3.190683 -8.438280 8.134163 -1.130785 25.074638 -3.637849 2.580087 -5.223670 2.932572 -3.340292 -15.908833 -9.065920 2.928028 38.250011 1.469450 -1.041500 -0.747890 -8.666089 -13.479738 4.665364 23.053370 5.085978 -0.110239 19.602129 -8.048184 -0.700309 -4.087672 2.742753 0.317320 0.166910 -0.128050 0.100110 3.831935 18.993353 12.621331 -19.157584 -8.014081 -1.157969 -13.216071 1.326991 0.042870 2.582782 -1.166376 -0.175730 0.150410 0.183810 -0.075040 
0.115470 16.609850 -0.904580 -3.465723 -1.588921 -8.866066 -15.274927 13.676846 3.589867 10.865542 -2.685341 -11.597662 -17.662321 15.895727 35.322478 0.789115 9.059864 1.528410 0.009840 -0.207030 -0.109130 17.958081 -10.407213 2.862472 -8.762478 3.238869 -8.178937 19.683258 -14.312143 33.853495 -0.889584 -7.232846 1.940235 -0.085710 0.362350 0.178300 -2.959425 -3.219882 -8.449233 7.827621 -1.282076 26.384944 -3.621336 2.496357 -4.149967 2.983768 -3.383143 -15.999339 -8.845789 2.807967 37.119021 1.170020 -0.951840 -0.966480 -8.369132 -13.374468 4.698813 22.090339 5.111026 -0.367842 20.948249 -8.126610 -0.847225 -4.115270 2.766603 0.296610 0.183490 -0.138870 0.110820 3.385566 19.025630 12.893535 -18.144329 -7.872313 -1.392044 -14.379344 0.766776 -0.015511 2.596024 -1.203866 -0.173400 0.152820 0.178570 -0.068420 
0.112580 16.563290 -0.916850 -3.321983 -1.424855 -9.521976 -15.298288 13.574047 3.649051 11.506085 -2.913497 -11.804487 -18.483977 16.785841 36.685446 0.882701 9.468281 1.400897 0.016850 -0.192510 -0.111080 17.956933 -10.315915 2.852700 -9.505323 3.432537 -8.286534 20.549120 -15.140647 35.077897 -0.958952 -7.558819 1.831657 -0.072360 0.370040 0.177660 -2.932804 -3.231794 -8.481064 7.455077 -1.279066 27.158076 -3.494576 2.462988 -3.358458 3.008527 -3.361688 -16.008795 -8.623428 2.619963 36.359269 0.916890 -0.939020 -1.151610 -8.354813 -13.403862 4.689682 21.438605 4.914255 -0.641479 22.032829 -8.106836 -0.972771 -4.133001 2.781588 0.282410 0.193160 -0.146600 0.117800 3.293531 19.078958 13.049087 -17.419553 -7.903222 -1.579659 -15.306973 0.513590 -0.062403 2.602004 -1.232867 -0.173170 0.157660 0.174740 -0.064770 
0.103160 16.515740 -0.919880 -3.224424 -1.257345 -9.645323 -15.329663 13.445550 3.740289 12.331560 -3.149403 -12.443007 -19.649659 17.773891 37.727795 0.975919 9.865535 1.273650 0.015280 -0.191790 -0.113480 17.951208 -10.190735 2.857918 -10.167754 3.675252 -8.780392 21.601305 -16.000561 36.096498 -1.022435 -7.852172 1.738064 -0.072250 0.375920 0.178290 -2.887706 -3.258296 -8.548305 6.991284 -1.126175 27.185717 -3.100686 2.460434 -2.859014 3.011331 -3.294254 -15.962218 -8.456408 2.436852 36.057459 0.635750 -0.937690 -1.132330 -8.608719 -13.561918 4.706179 20.938872 4.720722 -0.867954 22.901670 -8.135202 -1.074529 -4.145579 2.789258 0.274660 0.202140 -0.152500 0.118740 3.546522 19.165162 13.059480 -17.122790 -7.907933 -1.748923 -16.026079 0.419613 -0.089053 2.602374 -1.249392 -0.172290 0.159110 0.175260 -0.063700 
0.097180 16.472720 -0.917930 -3.286229 -1.126893 -9.477590 -15.353041 13.334916 3.836542 13.088238 -3.368918 -13.282781 -20.608001 18.614740 38.591611 1.052906 10.180889 1.175006 0.018710 -0.193660 -0.102430 17.948689 -10.069575 2.879104 -10.542329 3.931873 -9.466254 22.481666 -16.755483 37.003983 -1.086753 -8.077994 1.672772 -0.080620 0.369260 0.174220 -2.856946 -3.298971 -8.636125 6.899237 -1.081577 26.917133 -2.860850 2.444605 -2.934046 3.049612 -3.230886 -15.907856 -8.507678 2.341150 36.542123 0.403830 -0.926500 -1.126790 -9.247679 -13.835176 4.713672 20.763749 4.680931 -0.988858 23.424480 -8.422610 -1.135969 -4.130734 2.780174 0.287550 0.196960 -0.144940 0.120990 4.126827 19.326000 12.979320 -17.145489 -7.814919 -1.905941 -16.559361 0.548578 -0.086778 2.597644 -1.247787 -0.172670 0.163890 0.167210 -0.069160 
0.090100 16.431150 -0.929120 -3.314379 -1.099589 -10.130698 -15.377338 13.258714 3.895805 13.829176 -3.475478 -13.327841 -21.407433 19.440502 39.510111 1.150372 10.508420 1.079539 0.022550 -0.176850 -0.102850 17.945573 -9.971017 2.879193 -10.861240 4.116821 -9.372596 23.129006 -17.439902 37.983822 -1.152865 -8.334842 1.589192 -0.071110 0.373160 0.174140 -2.823226 -3.354196 -8.670861 6.735662 -1.129280 27.778179 -2.756989 2.461514 -2.303745 3.113174 -3.309917 -16.121836 -8.543969 2.304512 36.121251 0.238220 -0.872900 -1.226130 -8.919042 -13.784457 4.813788 19.675887 4.654415 -1.273223 24.427068 -8.221891 -1.248455 -4.145714 2.788732 0.269940 0.201210 -0.142430 0.127460 3.686443 19.462378 13.271037 -16.060279 -7.759986 -2.149478 -17.443158 0.083624 -0.123488 2.624768 -1.267992 -0.166020 0.168330 0.158910 -0.058370 
0.086630 16.393080 -0.934370 -3.279620 -0.995585 -10.384682 -15.394989 13.186486 3.960194 14.226804 -3.670983 -13.703138 -21.962590 20.114816 40.438953 1.220174 10.760763 0.997815 0.033420 -0.160860 -0.087680 17.943744 -9.885335 2.889926 -11.208255 4.281520 -9.625020 23.711250 -18.067000 38.823701 -1.212868 -8.532605 1.525551 -0.066560 0.354480 0.165590 -2.800623 -3.396999 -8.722334 6.576817 -1.153731 28.208549 -2.672802 2.446061 -2.280379 3.160400 -3.309217 -16.184026 -8.617329 2.273893 36.337198 0.166500 -0.821980 -1.603600 -9.050835 -13.836211 4.840549 19.110990 4.595898 -1.440831 24.994483 -8.266244 -1.312602 -4.130026 2.785396 0.276640 0.187260 -0.129170 0.126200 3.740660 19.541967 13.340518 -15.420980 -7.653807 -2.357014 -18.210807 0.007091 -0.135406 2.635424 -1.274411 -0.161940 0.170480 0.147070 -0.061510 
0.082190 16.355260 -0.933990 -3.185972 -0.805706 -10.216773 -15.413980 13.095382 4.048667 14.617116 -3.924697 -14.481665 -22.624491 20.787304 41.235857 1.280179 10.997917 0.925578 0.039530 -0.160420 -0.073800 17.939991 -9.791232 2.907772 -11.691385 4.428631 -10.232557 24.386580 -18.705927 39.475136 -1.270234 -8.699559 1.476353 -0.075150 0.341120 0.159020 -2.773950 -3.432154 -8.798951 6.290009 -1.097542 28.095442 -2.460377 2.407429 -2.576001 3.173578 -3.228069 -16.225867 -8.680746 2.278803 37.021131 0.205830 -0.808530 -1.834610 -9.449358 -14.043079 4.914538 18.677563 4.597330 -1.547983 25.438300 -8.430156 -1.364722 -4.106748 2.770346 0.300650 0.171890 -0.114520 0.127130 4.151294 19.629759 13.307357 -15.107359 -7.600670 -2.514380 -18.773950 0.172130 -0.121339 2.630838 -1.266908 -0.163510 0.176950 0.138940 -0.069150 
0.079460 16.319120 -0.945170 -3.186019 -0.742192 -10.828044 -15.426780 13.044090 4.090353 15.006175 -4.062160 -14.466991 -23.050702 21.384782 42.076673 1.339052 11.240456 0.856365 0.036760 -0.153520 -0.077760 17.940591 -9.726422 2.909034 -11.997188 4.534381 -10.070705 24.855776 -19.263002 40.188136 -1.318971 -8.893754 1.419439 -0.066080 0.347760 0.149990 -2.761076 -3.471662 -8.821934 6.229758 -1.220617 28.972554 -2.588792 2.384707 -2.181061 3.266196 -3.260847 -16.446651 -8.667859 2.384487 36.845572 0.172780 -0.667260 -2.004070 -9.266517 -14.091399 5.006024 17.728123 4.628315 -1.835389 26.507868 -8.168653 -1.486512 -4.122502 2.763636 0.295940 0.175700 -0.116640 0.128780 3.781600 19.806225 13.568400 -13.911056 -7.497103 -2.824965 -19.689869 -0.339947 -0.148319 2.647815 -1.278419 -0.170980 0.191710 0.139750 -0.066780 
0.077440 16.281940 -0.949360 -3.205031 -0.644970 -11.001327 -15.440011 12.963650 4.155715 15.498776 -4.223514 -14.834816 -23.668862 22.032122 42.755447 1.393675 11.468864 0.786426 0.039770 -0.148860 -0.074100 17.942455 -9.641174 2.927462 -12.436838 4.666577 -10.306087 25.612655 -19.917612 40.733426 -1.371846 -9.080854 1.363947 -0.063550 0.343360 0.145720 -2.749671 -3.498101 -8.875787 6.231304 -1.294194 29.292326 -2.668119 2.360015 -2.170045 3.349805 -3.216431 -16.530363 -8.634562 2.441520 37.072157 0.120700 -0.565720 -2.114810 -9.516226 -14.236589 5.034193 17.240024 4.602049 -2.023532 27.224829 -8.093649 -1.567796 -4.122509 2.759768 0.301790 0.173390 -0.113190 0.128710 3.863101 19.942576 13.652614 -13.288514 -7.395716 -3.039540 -20.278891 -0.632896 -0.148797 2.653564 -1.284560 -0.173270 0.195840 0.137260 -0.070370 
0.074390 16.246310 -0.951310 -3.092164 -0.525591 -11.115731 -15.451295 12.895088 4.203119 15.643750 -4.411788 -15.180374 -24.031105 22.554032 43.496485 1.447592 11.657730 0.732148 0.046740 -0.141160 -0.069250 17.943084 -9.577644 2.946434 -12.888482 4.770067 -10.568691 26.220816 -20.499232 41.270350 -1.419811 -9.251894 1.309164 -0.060650 0.337700 0.145530 -2.737823 -3.505404 -8.916111 6.036998 -1.241864 29.503834 -2.631749 2.371164 -2.145584 3.368423 -3.165086 -16.586836 -8.570476 2.405750 37.184951 0.136340 -0.577100 -2.125050 -9.715737 -14.359559 5.064571 16.873535 4.444934 -2.152823 27.413109 -7.850773 -1.585228 -4.121086 2.763015 0.303030 0.169790 -0.109110 0.131810 4.036015 20.033121 13.719391 -12.751041 -7.505563 -3.198972 -20.812819 -0.851975 -0.149596 2.662127 -1.300117 -0.170270 0.193190 0.130480 -0.070510 
0.070710 16.210070 -0.944400 -2.968304 -0.530258 -10.749468 -15.462818 12.790657 4.281701 15.922035 -4.561905 -15.906474 -24.766470 23.228471 43.977185 1.495899 11.854822 0.673115 0.042720 -0.153610 -0.067110 17.946426 -9.493229 2.982022 -13.425113 4.946534 -11.288621 26.967854 -21.118409 41.724374 -1.462003 -9.406084 1.263913 -0.071400 0.332770 0.140420 -2.728052 -3.487882 -8.992090 5.858152 -1.082856 29.071763 -2.489439 2.425829 -2.514762 3.332086 -3.072438 -16.545570 -8.568419 2.430004 37.822904 0.232510 -0.599130 -1.980360 -10.278232 -14.545132 5.088550 16.764980 4.419186 -2.137964 27.318446 -7.964074 -1.578527 -4.108302 2.750884 0.318980 0.163450 -0.107690 0.128150 4.698359 20.076360 13.609144 -12.793793 -7.516327 -3.264204 -21.067504 -0.730201 -0.125225 2.652832 -1.292385 -0.175500 0.194190 0.133130 -0.078520 
